<svg width="37" height="37" viewBox="0 0 37 37" fill="none" xmlns="http://www.w3.org/2000/svg">
<path fill-rule="evenodd" clip-rule="evenodd" d="M12.1571 4.49287C12.4067 4.16013 12.7984 3.96429 13.2143 3.96429H23.7857C24.2016 3.96429 24.5933 4.16013 24.8429 4.49287L28.4107 9.25001H33.0357C34.087 9.25001 35.0956 9.66769 35.839 10.4111C36.5824 11.1546 37 12.1629 37 13.2143V29.0714C37 30.1228 36.5824 31.1313 35.839 31.8747C35.0956 32.6182 34.087 33.0357 33.0357 33.0357H3.96429C2.91288 33.0357 1.90456 32.6182 1.16111 31.8747C0.417664 31.1313 0 30.1228 0 29.0714V13.2143C0 12.1629 0.417664 11.1546 1.16111 10.4111C1.90456 9.66769 2.91288 9.25001 3.96429 9.25001H8.58929L12.1571 4.49287ZM25.0049 20.3799C25.0049 23.9725 22.0925 26.8847 18.5 26.8847C14.9074 26.8847 11.9951 23.9725 11.9951 20.3799C11.9951 16.7874 14.9074 13.875 18.5 13.875C22.0925 13.875 25.0049 16.7874 25.0049 20.3799Z" fill="black"/>
</svg>
