<svg width="25" height="25" viewBox="0 0 25 25" fill="none" xmlns="http://www.w3.org/2000/svg">
<g clip-path="url(#clip0_113_45)">
<path fill-rule="evenodd" clip-rule="evenodd" d="M22.8238 0.411234C22.4947 0.346581 22.1552 0.358302 21.8315 0.445493L21.8216 0.448197L8.19046 4.23082C7.72962 4.35634 7.32234 4.629 7.03068 5.00738C6.73771 5.38743 6.57761 5.85313 6.57491 6.33298L6.57489 6.3405V16.1412C6.03962 15.9112 5.44986 15.7839 4.83034 15.7839C2.38752 15.7839 0.407227 17.7642 0.407227 20.2069C0.407227 22.6498 2.38752 24.6302 4.83034 24.6302C7.27316 24.6302 9.25346 22.6498 9.25346 20.2069L9.25343 20.1893L9.25346 20.18V10.8492L21.9141 7.33236V11.7319C21.379 11.5019 20.7891 11.3745 20.1697 11.3745C17.7268 11.3745 15.7465 13.3548 15.7465 15.7977C15.7465 18.2405 17.7268 20.2207 20.1697 20.2207C22.5222 20.2207 24.4457 18.3841 24.5847 16.0666C24.59 16.0181 24.5927 15.9689 24.5927 15.919V2.50439C24.5927 2.43563 24.5875 2.36752 24.5772 2.30057C24.5474 2.05161 24.4749 1.80896 24.3624 1.58346C24.2127 1.28338 23.9961 1.02165 23.7293 0.818422C23.4627 0.615193 23.1529 0.47589 22.8238 0.411234Z" fill="black"/>
</g>
<defs>
<clipPath id="clip0_113_45">
<rect width="25" height="25" fill="white"/>
</clipPath>
</defs>
</svg>
