<svg width="51" height="51" viewBox="0 0 51 51" fill="none" xmlns="http://www.w3.org/2000/svg">
<path d="M25.4996 19.788V26.456C25.4996 26.8888 25.6715 27.3039 25.9776 27.61L29.5796 31.212M5.09961 14.892V13.26C5.09961 8.75333 8.75296 5.09998 13.2596 5.09998H14.8916M36.1076 5.09998L37.7396 5.09998C42.2462 5.09998 45.8996 8.75333 45.8996 13.26V14.892M12.4436 40.188L6.73161 45.9M44.2676 45.9L38.5556 40.188M43.4516 27.132C43.4516 37.0466 35.4142 45.084 25.4996 45.084C15.585 45.084 7.54761 37.0466 7.54761 27.132C7.54761 17.2174 15.585 9.17998 25.4996 9.17998C35.4142 9.17998 43.4516 17.2174 43.4516 27.132Z" stroke="black" stroke-width="3" stroke-linecap="round"/>
</svg>
